<svg width="32" height="32" viewBox="0 0 32 32" fill="none" xmlns="http://www.w3.org/2000/svg">
<path fill-rule="evenodd" clip-rule="evenodd" d="M22.9999 23.0807V24.0001H6.99994V8.00009H7.91932C8.14639 8.00009 8.3667 7.92281 8.54401 7.78095C8.97527 7.43595 9.04519 6.80665 8.70019 6.37539L6.78081 3.97617C6.73468 3.91851 6.6823 3.86613 6.62464 3.82C6.19337 3.47499 5.56408 3.54491 5.21907 3.97617L3.2997 6.37539C3.15785 6.5527 3.08057 6.77301 3.08057 7.00009C3.08057 7.55237 3.52828 8.00009 4.08057 8.00009H4.99994V24.0001C4.99994 25.1047 5.89537 26.0001 6.99994 26.0001H22.9999V26.9195C22.9999 27.1465 23.0772 27.3668 23.2191 27.5442C23.5641 27.9754 24.1934 28.0453 24.6246 27.7003L27.0239 25.781C27.0815 25.7348 27.1339 25.6824 27.18 25.6248C27.525 25.1935 27.4551 24.5642 27.0239 24.2192L24.6246 22.2998C24.4473 22.158 24.227 22.0807 23.9999 22.0807C23.4477 22.0807 22.9999 22.5284 22.9999 23.0807ZM10.9999 11.0001C10.9999 11.5524 11.4477 12.0001 11.9999 12.0001H20.9999C21.5522 12.0001 21.9999 11.5524 21.9999 11.0001C21.9999 10.4478 21.5522 10.0001 20.9999 10.0001H11.9999C11.4477 10.0001 10.9999 10.4478 10.9999 11.0001ZM11.9999 16.0001C11.4477 16.0001 10.9999 15.5524 10.9999 15.0001C10.9999 14.4478 11.4477 14.0001 11.9999 14.0001H17.9999C18.5522 14.0001 18.9999 14.4478 18.9999 15.0001C18.9999 15.5524 18.5522 16.0001 17.9999 16.0001H11.9999ZM10.9999 19.0001C10.9999 19.5524 11.4477 20.0001 11.9999 20.0001H19.9999C20.5522 20.0001 20.9999 19.5524 20.9999 19.0001C20.9999 18.4478 20.5522 18.0001 19.9999 18.0001H11.9999C11.4477 18.0001 10.9999 18.4478 10.9999 19.0001Z" fill="#2D3B4E" fill-opacity="0.5"/>
</svg>
